<svg width="1600" height="1000" viewBox="0 0 1600 1000" fill="none" xmlns="http://www.w3.org/2000/svg">
  <rect width="1600" height="1000" fill="#FBF7EF"/>
  <rect x="64" y="64" width="1472" height="872" rx="40" fill="#FFFDF8" stroke="#1C1917" stroke-width="3"/>
  <rect x="122" y="122" width="1356" height="756" rx="28" fill="#111827"/>
  <rect x="196" y="196" width="1208" height="240" rx="28" fill="#F9FAFB"/>
  <rect x="196" y="486" width="1208" height="266" rx="28" fill="#161F35"/>
  <circle cx="288" cy="320" r="26" fill="#DC2626"/>
  <circle cx="288" cy="320" r="9" fill="#F9FAFB"/>
  <path d="M376 280H1260" stroke="#1F2937" stroke-width="4" stroke-linecap="round"/>
  <path d="M376 334H1188" stroke="#1F2937" stroke-opacity="0.42" stroke-width="4" stroke-linecap="round"/>
  <path d="M376 388H1094" stroke="#1F2937" stroke-opacity="0.42" stroke-width="4" stroke-linecap="round"/>
  <rect x="254" y="548" width="276" height="142" rx="20" fill="#0F172A" stroke="rgba(255,255,255,0.14)" stroke-width="2"/>
  <rect x="566" y="548" width="276" height="142" rx="20" fill="#0F172A" stroke="rgba(255,255,255,0.14)" stroke-width="2"/>
  <rect x="878" y="548" width="276" height="142" rx="20" fill="#0F172A" stroke="rgba(255,255,255,0.14)" stroke-width="2"/>
  <path d="M1214 540V694" stroke="#F59E0B" stroke-width="4" stroke-linecap="round"/>
  <path d="M1142 618H1286" stroke="#F59E0B" stroke-width="4" stroke-linecap="round"/>
  <text x="196" y="844" fill="#F59E0B" font-family="SFMono-Regular, Menlo, Monaco, Consolas, monospace" font-size="28" letter-spacing="0.18em">BLUF · DATA-ANCHORED · ACTIONABLE · ANTI-FLUFF</text>
  <text x="196" y="292" fill="#111827" font-family="Helvetica Neue, Arial, sans-serif" font-size="84" font-weight="700">MANAGE UP</text>
  <text x="196" y="362" fill="#111827" font-family="Helvetica Neue, Arial, sans-serif" font-size="34">Workplace communication system for reports, proposals, and upward writing.</text>
</svg>
