<svg width="1600" height="1000" viewBox="0 0 1600 1000" fill="none" xmlns="http://www.w3.org/2000/svg">
  <rect width="1600" height="1000" fill="#F7F7F5"/>
  <rect x="64" y="64" width="1472" height="872" rx="40" fill="#FFFFFF" stroke="#111827" stroke-width="3"/>
  <rect x="110" y="110" width="1380" height="780" rx="28" fill="#F5F5F4" stroke="#D6D3D1" stroke-width="2"/>
  <rect x="164" y="164" width="1272" height="128" rx="24" fill="#0F172A"/>
  <rect x="164" y="332" width="612" height="502" rx="24" fill="#FFFFFF" stroke="#D6D3D1" stroke-width="2"/>
  <rect x="824" y="332" width="612" height="236" rx="24" fill="#FFFFFF" stroke="#D6D3D1" stroke-width="2"/>
  <rect x="824" y="598" width="612" height="236" rx="24" fill="#FFFFFF" stroke="#D6D3D1" stroke-width="2"/>
  <path d="M232 432H690" stroke="#0F172A" stroke-width="4" stroke-linecap="round"/>
  <path d="M232 500H612" stroke="#0F172A" stroke-opacity="0.32" stroke-width="4" stroke-linecap="round"/>
  <path d="M232 568H658" stroke="#0F172A" stroke-opacity="0.32" stroke-width="4" stroke-linecap="round"/>
  <path d="M896 410H1320" stroke="#0F172A" stroke-width="4" stroke-linecap="round"/>
  <path d="M896 470H1260" stroke="#0F172A" stroke-opacity="0.3" stroke-width="4" stroke-linecap="round"/>
  <path d="M896 674H1320" stroke="#0F172A" stroke-width="4" stroke-linecap="round"/>
  <path d="M896 734H1240" stroke="#0F172A" stroke-opacity="0.3" stroke-width="4" stroke-linecap="round"/>
  <circle cx="1240" cy="226" r="48" fill="#2563EB"/>
  <circle cx="1240" cy="226" r="20" fill="#FFFFFF"/>
  <text x="164" y="966" fill="#2563EB" font-family="SFMono-Regular, Menlo, Monaco, Consolas, monospace" font-size="28" letter-spacing="0.16em">SITE · BLOG · SEO · DIGITAL TWIN WORKFLOW</text>
  <text x="164" y="248" fill="#FFFFFF" font-family="Helvetica Neue, Arial, sans-serif" font-size="84" font-weight="700">PERSONAL WEBSITE</text>
  <text x="164" y="304" fill="rgba(255,255,255,0.72)" font-family="Helvetica Neue, Arial, sans-serif" font-size="34">A proof-first narrative system for public engineering work and writing.</text>
</svg>
