<svg width="1600" height="1000" viewBox="0 0 1600 1000" fill="none" xmlns="http://www.w3.org/2000/svg">
  <defs>
    <linearGradient id="bg" x1="164" y1="106" x2="1420" y2="924" gradientUnits="userSpaceOnUse">
      <stop stop-color="#0B1220"/>
      <stop offset="1" stop-color="#172554"/>
    </linearGradient>
    <linearGradient id="loop" x1="588" y1="470" x2="1008" y2="646" gradientUnits="userSpaceOnUse">
      <stop stop-color="#22D3EE"/>
      <stop offset="1" stop-color="#67E8F9"/>
    </linearGradient>
    <filter id="shadow" x="0" y="0" width="1600" height="1000" filterUnits="userSpaceOnUse" color-interpolation-filters="sRGB">
      <feDropShadow dx="0" dy="26" stdDeviation="28" flood-color="#020617" flood-opacity="0.38"/>
    </filter>
  </defs>
  <rect width="1600" height="1000" fill="url(#bg)"/>
  <circle cx="290" cy="206" r="102" fill="#22D3EE" fill-opacity="0.12"/>
  <circle cx="1294" cy="196" r="130" fill="#F97316" fill-opacity="0.12"/>
  <ellipse cx="804" cy="844" rx="496" ry="70" fill="#020617" fill-opacity="0.32"/>

  <g filter="url(#shadow)">
    <rect x="394" y="238" width="334" height="454" rx="40" fill="#111827" stroke="#38BDF8" stroke-opacity="0.18" stroke-width="3"/>
    <rect x="872" y="210" width="336" height="510" rx="44" fill="#0F1D39" stroke="#67E8F9" stroke-opacity="0.44" stroke-width="3"/>
    <path d="M910 492C910 382 986 296 1084 296C1184 296 1260 382 1260 492V630H910V492Z" fill="#0EA5E9" fill-opacity="0.14"/>
    <path d="M442 532C442 430 514 350 606 350C694 350 762 430 762 532V652H442V532Z" fill="#F8FAFC" fill-opacity="0.08"/>
  </g>

  <g filter="url(#shadow)">
    <circle cx="560" cy="406" r="58" fill="#FCD34D"/>
    <circle cx="560" cy="408" r="46" fill="#F8D4BE"/>
    <circle cx="544" cy="398" r="5" fill="#111827"/>
    <circle cx="576" cy="398" r="5" fill="#111827"/>
    <path d="M546 424C554 434 568 434 578 424" stroke="#B45309" stroke-width="4" stroke-linecap="round"/>
    <path d="M516 402C520 366 546 342 580 342C608 342 630 358 640 382C624 368 606 362 580 362C556 362 534 374 516 402Z" fill="#111827"/>
    <rect x="494" y="462" width="132" height="172" rx="34" fill="#F97316"/>
    <rect x="474" y="516" width="34" height="128" rx="17" fill="#F8D4BE"/>
    <rect x="618" y="516" width="34" height="128" rx="17" fill="#F8D4BE"/>
    <rect x="586" y="502" width="88" height="26" rx="13" transform="rotate(-20 586 502)" fill="#F8D4BE"/>
    <path d="M640 470L744 422" stroke="#F8D4BE" stroke-width="18" stroke-linecap="round"/>
    <rect x="674" y="370" width="120" height="76" rx="18" fill="#0F172A" stroke="#38BDF8" stroke-width="3"/>
    <rect x="692" y="392" width="74" height="12" rx="6" fill="#E2E8F0"/>
    <rect x="692" y="416" width="58" height="10" rx="5" fill="#64748B"/>
    <rect x="470" y="650" width="182" height="24" rx="12" fill="#334155"/>
    <rect x="438" y="684" width="248" height="18" rx="9" fill="#1E293B"/>
  </g>

  <g filter="url(#shadow)">
    <circle cx="1088" cy="360" r="66" fill="#22D3EE" fill-opacity="0.22"/>
    <circle cx="1088" cy="360" r="48" fill="#CFFAFE"/>
    <circle cx="1070" cy="352" r="5" fill="#0F172A"/>
    <circle cx="1104" cy="352" r="5" fill="#0F172A"/>
    <path d="M1072 376C1082 388 1096 388 1106 376" stroke="#0369A1" stroke-width="4" stroke-linecap="round"/>
    <path d="M1040 354C1048 320 1072 300 1108 300C1138 300 1160 316 1170 338C1154 326 1136 320 1108 320C1080 320 1058 330 1040 354Z" fill="#67E8F9" fill-opacity="0.36"/>
    <rect x="1008" y="440" width="160" height="212" rx="40" fill="#22D3EE" fill-opacity="0.18" stroke="#67E8F9" stroke-opacity="0.46" stroke-width="3"/>
    <rect x="984" y="506" width="34" height="134" rx="17" fill="#CFFAFE" fill-opacity="0.72"/>
    <rect x="1158" y="506" width="34" height="134" rx="17" fill="#CFFAFE" fill-opacity="0.72"/>
    <rect x="1040" y="520" width="96" height="26" rx="13" fill="#CFFAFE" fill-opacity="0.72"/>
  </g>

  <g stroke="url(#loop)" stroke-width="14" stroke-linecap="round">
    <path d="M724 466C778 398 852 358 944 356"/>
    <path d="M938 356L904 336"/>
    <path d="M938 356L918 394"/>
    <path d="M948 580C884 644 810 684 714 688"/>
    <path d="M720 688L754 708"/>
    <path d="M720 688L742 650"/>
  </g>

  <g filter="url(#shadow)">
    <rect x="700" y="330" width="140" height="96" rx="24" fill="#F8FAFC"/>
    <rect x="700" y="330" width="140" height="96" rx="24" stroke="#BAE6FD" stroke-width="3"/>
    <path d="M734 364H804" stroke="#0F172A" stroke-width="10" stroke-linecap="round"/>
    <path d="M734 392H792" stroke="#94A3B8" stroke-width="8" stroke-linecap="round"/>
  </g>

  <g filter="url(#shadow)">
    <rect x="832" y="650" width="148" height="100" rx="26" fill="#F8FAFC"/>
    <rect x="832" y="650" width="148" height="100" rx="26" stroke="#BAE6FD" stroke-width="3"/>
    <rect x="864" y="680" width="86" height="16" rx="8" fill="#0F172A"/>
    <rect x="864" y="710" width="62" height="12" rx="6" fill="#94A3B8"/>
  </g>

  <g filter="url(#shadow)">
    <rect x="748" y="492" width="188" height="116" rx="30" fill="#082F49" stroke="#22D3EE" stroke-width="3"/>
    <text x="786" y="542" fill="#CFFAFE" font-family="SFMono-Regular, Menlo, Monaco, Consolas, monospace" font-size="22" font-weight="700">retrieve</text>
    <text x="826" y="578" fill="#F97316" font-family="SFMono-Regular, Menlo, Monaco, Consolas, monospace" font-size="22" font-weight="700">write back</text>
  </g>
</svg>
